<?xml version="1.0" encoding="UTF-8" standalone="no"?>
<!DOCTYPE svg PUBLIC "-//W3C//DTD SVG 1.1//EN"
 "http://www.w3.org/Graphics/SVG/1.1/DTD/svg11.dtd">
<!-- Generated by graphviz version 2.40.1 (20161225.0304)
 -->
<!-- Title: G Pages: 1 -->
<svg width="933pt" height="515pt"
 viewBox="0.00 0.00 933.00 515.00" xmlns="http://www.w3.org/2000/svg" xmlns:xlink="http://www.w3.org/1999/xlink">
<g id="graph0" class="graph" transform="scale(1 1) rotate(0) translate(4 511)">
<title>G</title>
<polygon fill="#ffffff" stroke="transparent" points="-4,4 -4,-511 929,-511 929,4 -4,4"/>
<g id="clust1" class="cluster">
<title>cluster_root</title>
<g id="a_clust1"><a xlink:title="eventq_index=0&#10;full_system=false&#10;sim_quantum=0&#10;time_sync_enable=false&#10;time_sync_period=100000000000&#10;time_sync_spin_threshold=100000000">
<path fill="#bab6ae" stroke="#000000" d="M20,-8C20,-8 905,-8 905,-8 911,-8 917,-14 917,-20 917,-20 917,-487 917,-487 917,-493 911,-499 905,-499 905,-499 20,-499 20,-499 14,-499 8,-493 8,-487 8,-487 8,-20 8,-20 8,-14 14,-8 20,-8"/>
<text text-anchor="middle" x="462.5" y="-483.8" font-family="Arial" font-size="14.00" fill="#000000">root </text>
<text text-anchor="middle" x="462.5" y="-468.8" font-family="Arial" font-size="14.00" fill="#000000">: Root</text>
</a>
</g>
</g>
<g id="clust2" class="cluster">
<title>cluster_system</title>
<g id="a_clust2"><a xlink:title="boot_osflags=a&#10;cache_line_size=64&#10;eventq_index=0&#10;exit_on_work_items=false&#10;init_param=0&#10;kernel=&#10;kernel_addr_check=true&#10;kernel_extras=&#10;&#10;oad_addr_mask=18446744073709551615&#10;&#10;oad_offset=0&#10;mem_mode=timing&#10;mem_ranges=0:536870911&#10;memories=system.mem_ctrls&#10;mmap_using_noreserve=false&#10;multi_thread=false&#10;&#10;um_work_ids=16&#10;&#13;eadfile=&#10;&#13;edirect_paths=system.redirect_paths0 system.redirect_paths1 system.redirect_paths2 system.redirect_paths3&#10;symbolfile=&#10;thermal_components=&#10;thermal_model=Null&#10;work_begin_ckpt_count=0&#10;work_begin_cpu_id_exit=&#45;1&#10;work_begin_exit_count=0&#10;work_cpus_ckpt_count=0&#10;work_end_ckpt_count=0&#10;work_end_exit_count=0&#10;work_item_id=&#45;1">
<path fill="#e4e7eb" stroke="#000000" d="M28,-16C28,-16 897,-16 897,-16 903,-16 909,-22 909,-28 909,-28 909,-441 909,-441 909,-447 903,-453 897,-453 897,-453 28,-453 28,-453 22,-453 16,-447 16,-441 16,-441 16,-28 16,-28 16,-22 22,-16 28,-16"/>
<text text-anchor="middle" x="462.5" y="-437.8" font-family="Arial" font-size="14.00" fill="#000000">system </text>
<text text-anchor="middle" x="462.5" y="-422.8" font-family="Arial" font-size="14.00" fill="#000000">: System</text>
</a>
</g>
</g>
<g id="clust3" class="cluster">
<title>cluster_system_membus</title>
<g id="a_clust3"><a xlink:title="clk_domain=system.clk_domain&#10;default_p_state=UNDEFINED&#10;eventq_index=0&#10;forward_latency=4&#10;frontend_latency=3&#10;max_outstanding_snoops=512&#10;max_routing_table_size=512&#10;p_state_clk_gate_bins=20&#10;p_state_clk_gate_max=1000000000000&#10;p_state_clk_gate_min=1000&#10;point_of_coherency=true&#10;point_of_unification=true&#10;power_model=&#10;&#13;esponse_latency=2&#10;snoop_filter=system.membus.snoop_filter&#10;snoop_response_latency=4&#10;system=system&#10;use_default_range=false&#10;width=16">
<path fill="#6f798c" stroke="#000000" d="M107,-231C107,-231 233,-231 233,-231 239,-231 245,-237 245,-243 245,-243 245,-310 245,-310 245,-316 239,-322 233,-322 233,-322 107,-322 107,-322 101,-322 95,-316 95,-310 95,-310 95,-243 95,-243 95,-237 101,-231 107,-231"/>
<text text-anchor="middle" x="170" y="-306.8" font-family="Arial" font-size="14.00" fill="#000000">membus </text>
<text text-anchor="middle" x="170" y="-291.8" font-family="Arial" font-size="14.00" fill="#000000">: SystemXBar</text>
</a>
</g>
</g>
<g id="clust9" class="cluster">
<title>cluster_system_tol2bus</title>
<g id="a_clust9"><a xlink:title="clk_domain=system.cpu_clk_domain&#10;default_p_state=UNDEFINED&#10;eventq_index=0&#10;forward_latency=0&#10;frontend_latency=1&#10;max_outstanding_snoops=512&#10;max_routing_table_size=512&#10;p_state_clk_gate_bins=20&#10;p_state_clk_gate_max=1000000000000&#10;p_state_clk_gate_min=1000&#10;point_of_coherency=false&#10;point_of_unification=true&#10;power_model=&#10;&#13;esponse_latency=1&#10;snoop_filter=system.tol2bus.snoop_filter&#10;snoop_response_latency=1&#10;system=system&#10;use_default_range=false&#10;width=32">
<path fill="#6f798c" stroke="#000000" d="M438,-231C438,-231 564,-231 564,-231 570,-231 576,-237 576,-243 576,-243 576,-310 576,-310 576,-316 570,-322 564,-322 564,-322 438,-322 438,-322 432,-322 426,-316 426,-310 426,-310 426,-243 426,-243 426,-237 432,-231 438,-231"/>
<text text-anchor="middle" x="501" y="-306.8" font-family="Arial" font-size="14.00" fill="#000000">tol2bus </text>
<text text-anchor="middle" x="501" y="-291.8" font-family="Arial" font-size="14.00" fill="#000000">: L2XBar</text>
</a>
</g>
</g>
<g id="clust13" class="cluster">
<title>cluster_system_l2</title>
<g id="a_clust13"><a xlink:title="addr_ranges=0:18446744073709551615&#10;assoc=8&#10;clk_domain=system.cpu_clk_domain&#10;clusivity=mostly_incl&#10;compressor=Null&#10;data_latency=20&#10;default_p_state=UNDEFINED&#10;demand_mshr_reserve=1&#10;eventq_index=0&#10;is_read_only=false&#10;max_miss_count=0&#10;mshrs=20&#10;p_state_clk_gate_bins=20&#10;p_state_clk_gate_max=1000000000000&#10;p_state_clk_gate_min=1000&#10;power_model=&#10;prefetch_on_access=false&#10;prefetcher=Null&#10;&#13;eplacement_policy=system.l2.replacement_policy&#10;&#13;esponse_latency=20&#10;sequential_access=false&#10;size=2097152&#10;system=system&#10;tag_latency=20&#10;tags=system.l2.tags&#10;tgts_per_mshr=12&#10;warmup_percentage=0&#10;write_allocator=Null&#10;write_buffers=8&#10;writeback_clean=false">
<path fill="#bab6ae" stroke="#000000" d="M181,-40C181,-40 351,-40 351,-40 357,-40 363,-46 363,-52 363,-52 363,-119 363,-119 363,-125 357,-131 351,-131 351,-131 181,-131 181,-131 175,-131 169,-125 169,-119 169,-119 169,-52 169,-52 169,-46 175,-40 181,-40"/>
<text text-anchor="middle" x="266" y="-115.8" font-family="Arial" font-size="14.00" fill="#000000">l2 </text>
<text text-anchor="middle" x="266" y="-100.8" font-family="Arial" font-size="14.00" fill="#000000">: L2Cache</text>
</a>
</g>
</g>
<g id="clust18" class="cluster">
<title>cluster_system_mem_ctrls</title>
<g id="a_clust18"><a xlink:title="IDD0=0.055&#10;IDD02=0.0&#10;IDD2N=0.032&#10;IDD2N2=0.0&#10;IDD2P0=0.0&#10;IDD2P02=0.0&#10;IDD2P1=0.032&#10;IDD2P12=0.0&#10;IDD3N=0.038&#10;IDD3N2=0.0&#10;IDD3P0=0.0&#10;IDD3P02=0.0&#10;IDD3P1=0.038&#10;IDD3P12=0.0&#10;IDD4R=0.157&#10;IDD4R2=0.0&#10;IDD4W=0.125&#10;IDD4W2=0.0&#10;IDD5=0.235&#10;IDD52=0.0&#10;IDD6=0.02&#10;IDD62=0.0&#10;VDD=1.5&#10;VDD2=0.0&#10;activation_limit=4&#10;addr_mapping=RoRaBaCoCh&#10;bank_groups_per_rank=0&#10;banks_per_rank=8&#10;burst_length=8&#10;clk_domain=system.clk_domain&#10;conf_table_reported=true&#10;default_p_state=UNDEFINED&#10;device_bus_width=8&#10;device_rowbuffer_size=1024&#10;device_size=536870912&#10;devices_per_rank=8&#10;dll=true&#10;enable_dram_powerdown=false&#10;eventq_index=0&#10;in_addr_map=true&#10;kvm_map=true&#10;max_accesses_per_row=16&#10;mem_sched_policy=frfcfs&#10;min_writes_per_switch=16&#10;&#10;ull=false&#10;p_state_clk_gate_bins=20&#10;p_state_clk_gate_max=1000000000000&#10;p_state_clk_gate_min=1000&#10;page_policy=open_adaptive&#10;power_model=&#10;qos_masters= &#160;&#160;&#160;&#160;&#160;&#160;&#160;&#160;&#160;&#160;&#160;&#160;&#160;&#160;&#10;qos_policy=Null&#10;qos_priorities=1&#10;qos_priority_escalation=false&#10;qos_q_policy=fifo&#10;qos_syncro_scheduler=false&#10;qos_turnaround_policy=Null&#10;&#13;ange=0:536870911&#10;&#13;anks_per_channel=2&#10;&#13;ead_buffer_size=32&#10;static_backend_latency=10000&#10;static_frontend_latency=10000&#10;tBURST=5000&#10;tCCD_L=0&#10;tCCD_L_WR=0&#10;tCK=1250&#10;tCL=13750&#10;tCS=2500&#10;tRAS=35000&#10;tRCD=13750&#10;tREFI=7800000&#10;tRFC=260000&#10;tRP=13750&#10;tRRD=6000&#10;tRRD_L=0&#10;tRTP=7500&#10;tRTW=2500&#10;tWR=15000&#10;tWTR=7500&#10;tXAW=30000&#10;tXP=6000&#10;tXPDLL=0&#10;tXS=270000&#10;tXSDLL=0&#10;write_buffer_size=64&#10;write_high_thresh_perc=85&#10;write_low_thresh_perc=50">
<path fill="#5e5958" stroke="#000000" d="M36,-40C36,-40 149,-40 149,-40 155,-40 161,-46 161,-52 161,-52 161,-119 161,-119 161,-125 155,-131 149,-131 149,-131 36,-131 36,-131 30,-131 24,-125 24,-119 24,-119 24,-52 24,-52 24,-46 30,-40 36,-40"/>
<text text-anchor="middle" x="92.5" y="-115.8" font-family="Arial" font-size="14.00" fill="#000000">mem_ctrls </text>
<text text-anchor="middle" x="92.5" y="-100.8" font-family="Arial" font-size="14.00" fill="#000000">: DDR3_1600_8x8</text>
</a>
</g>
</g>
<g id="clust21" class="cluster">
<title>cluster_system_cpu</title>
<g id="a_clust21"><a xlink:title="branchPred=Null&#10;checker=Null&#10;clk_domain=system.cpu_clk_domain&#10;cpu_id=0&#10;default_p_state=UNDEFINED&#10;do_checkpoint_insts=true&#10;do_quiesce=true&#10;do_statistics_insts=true&#10;dtb=system.cpu.dtb&#10;eventq_index=0&#10;function_trace=false&#10;function_trace_start=0&#10;interrupts=system.cpu.interrupts&#10;isa=system.cpu.isa&#10;itb=system.cpu.itb&#10;max_insts_all_threads=0&#10;max_insts_any_thread=0&#10;&#10;umThreads=1&#10;p_state_clk_gate_bins=20&#10;p_state_clk_gate_max=1000000000000&#10;p_state_clk_gate_min=1000&#10;power_gating_on_idle=false&#10;power_model=&#10;profile=0&#10;progress_interval=0&#10;pwr_gating_latency=300&#10;simpoint_start_insts=&#10;socket_id=0&#10;switched_out=false&#10;syscallRetryLatency=10000&#10;system=system&#10;tracer=system.cpu.tracer&#10;wait_for_remote_gdb=false&#10;workload=system.cpu.workload">
<path fill="#bbc6d9" stroke="#000000" d="M383,-24C383,-24 889,-24 889,-24 895,-24 901,-30 901,-36 901,-36 901,-211 901,-211 901,-217 895,-223 889,-223 889,-223 383,-223 383,-223 377,-223 371,-217 371,-211 371,-211 371,-36 371,-36 371,-30 377,-24 383,-24"/>
<text text-anchor="middle" x="636" y="-207.8" font-family="Arial" font-size="14.00" fill="#000000">cpu </text>
<text text-anchor="middle" x="636" y="-192.8" font-family="Arial" font-size="14.00" fill="#000000">: TimingSimpleCPU</text>
</a>
</g>
</g>
<g id="clust23" class="cluster">
<title>cluster_system_cpu_dtb</title>
<g id="a_clust23"><a xlink:title="eventq_index=0&#10;is_stage2=false&#10;size=64&#10;sys=system&#10;walker=system.cpu.dtb.walker">
<path fill="#bab6ae" stroke="#000000" d="M760,-32C760,-32 881,-32 881,-32 887,-32 893,-38 893,-44 893,-44 893,-165 893,-165 893,-171 887,-177 881,-177 881,-177 760,-177 760,-177 754,-177 748,-171 748,-165 748,-165 748,-44 748,-44 748,-38 754,-32 760,-32"/>
<text text-anchor="middle" x="820.5" y="-161.8" font-family="Arial" font-size="14.00" fill="#000000">dtb </text>
<text text-anchor="middle" x="820.5" y="-146.8" font-family="Arial" font-size="14.00" fill="#000000">: ArmDTB</text>
</a>
</g>
</g>
<g id="clust24" class="cluster">
<title>cluster_system_cpu_dtb_walker</title>
<g id="a_clust24"><a xlink:title="clk_domain=system.cpu_clk_domain&#10;default_p_state=UNDEFINED&#10;eventq_index=0&#10;is_stage2=false&#10;&#10;um_squash_per_cycle=2&#10;p_state_clk_gate_bins=20&#10;p_state_clk_gate_max=1000000000000&#10;p_state_clk_gate_min=1000&#10;power_model=&#10;sys=system">
<path fill="#9f9c95" stroke="#000000" d="M768,-40C768,-40 873,-40 873,-40 879,-40 885,-46 885,-52 885,-52 885,-119 885,-119 885,-125 879,-131 873,-131 873,-131 768,-131 768,-131 762,-131 756,-125 756,-119 756,-119 756,-52 756,-52 756,-46 762,-40 768,-40"/>
<text text-anchor="middle" x="820.5" y="-115.8" font-family="Arial" font-size="14.00" fill="#000000">walker </text>
<text text-anchor="middle" x="820.5" y="-100.8" font-family="Arial" font-size="14.00" fill="#000000">: ArmTableWalker</text>
</a>
</g>
</g>
<g id="clust29" class="cluster">
<title>cluster_system_cpu_itb</title>
<g id="a_clust29"><a xlink:title="eventq_index=0&#10;is_stage2=false&#10;size=64&#10;sys=system&#10;walker=system.cpu.itb.walker">
<path fill="#bab6ae" stroke="#000000" d="M607,-32C607,-32 728,-32 728,-32 734,-32 740,-38 740,-44 740,-44 740,-165 740,-165 740,-171 734,-177 728,-177 728,-177 607,-177 607,-177 601,-177 595,-171 595,-165 595,-165 595,-44 595,-44 595,-38 601,-32 607,-32"/>
<text text-anchor="middle" x="667.5" y="-161.8" font-family="Arial" font-size="14.00" fill="#000000">itb </text>
<text text-anchor="middle" x="667.5" y="-146.8" font-family="Arial" font-size="14.00" fill="#000000">: ArmITB</text>
</a>
</g>
</g>
<g id="clust30" class="cluster">
<title>cluster_system_cpu_itb_walker</title>
<g id="a_clust30"><a xlink:title="clk_domain=system.cpu_clk_domain&#10;default_p_state=UNDEFINED&#10;eventq_index=0&#10;is_stage2=false&#10;&#10;um_squash_per_cycle=2&#10;p_state_clk_gate_bins=20&#10;p_state_clk_gate_max=1000000000000&#10;p_state_clk_gate_min=1000&#10;power_model=&#10;sys=system">
<path fill="#9f9c95" stroke="#000000" d="M615,-40C615,-40 720,-40 720,-40 726,-40 732,-46 732,-52 732,-52 732,-119 732,-119 732,-125 726,-131 720,-131 720,-131 615,-131 615,-131 609,-131 603,-125 603,-119 603,-119 603,-52 603,-52 603,-46 609,-40 615,-40"/>
<text text-anchor="middle" x="667.5" y="-115.8" font-family="Arial" font-size="14.00" fill="#000000">walker </text>
<text text-anchor="middle" x="667.5" y="-100.8" font-family="Arial" font-size="14.00" fill="#000000">: ArmTableWalker</text>
</a>
</g>
</g>
<!-- system_system_port -->
<g id="node1" class="node">
<title>system_system_port</title>
<path fill="#b6b8bc" stroke="#000000" d="M174,-370.5C174,-370.5 246,-370.5 246,-370.5 252,-370.5 258,-376.5 258,-382.5 258,-382.5 258,-394.5 258,-394.5 258,-400.5 252,-406.5 246,-406.5 246,-406.5 174,-406.5 174,-406.5 168,-406.5 162,-400.5 162,-394.5 162,-394.5 162,-382.5 162,-382.5 162,-376.5 168,-370.5 174,-370.5"/>
<text text-anchor="middle" x="210" y="-384.8" font-family="Arial" font-size="14.00" fill="#000000">system_port</text>
</g>
<!-- system_membus_slave -->
<g id="node3" class="node">
<title>system_membus_slave</title>
<path fill="#586070" stroke="#000000" d="M195,-239.5C195,-239.5 225,-239.5 225,-239.5 231,-239.5 237,-245.5 237,-251.5 237,-251.5 237,-263.5 237,-263.5 237,-269.5 231,-275.5 225,-275.5 225,-275.5 195,-275.5 195,-275.5 189,-275.5 183,-269.5 183,-263.5 183,-263.5 183,-251.5 183,-251.5 183,-245.5 189,-239.5 195,-239.5"/>
<text text-anchor="middle" x="210" y="-253.8" font-family="Arial" font-size="14.00" fill="#000000">slave</text>
</g>
<!-- system_system_port&#45;&gt;system_membus_slave -->
<g id="edge1" class="edge">
<title>system_system_port&#45;&gt;system_membus_slave</title>
<path fill="none" stroke="#000000" d="M210,-370.285C210,-348.3856 210,-311.3861 210,-285.7663"/>
<polygon fill="#000000" stroke="#000000" points="213.5001,-285.5603 210,-275.5603 206.5001,-285.5603 213.5001,-285.5603"/>
</g>
<!-- system_membus_master -->
<g id="node2" class="node">
<title>system_membus_master</title>
<path fill="#586070" stroke="#000000" d="M115.5,-239.5C115.5,-239.5 152.5,-239.5 152.5,-239.5 158.5,-239.5 164.5,-245.5 164.5,-251.5 164.5,-251.5 164.5,-263.5 164.5,-263.5 164.5,-269.5 158.5,-275.5 152.5,-275.5 152.5,-275.5 115.5,-275.5 115.5,-275.5 109.5,-275.5 103.5,-269.5 103.5,-263.5 103.5,-263.5 103.5,-251.5 103.5,-251.5 103.5,-245.5 109.5,-239.5 115.5,-239.5"/>
<text text-anchor="middle" x="134" y="-253.8" font-family="Arial" font-size="14.00" fill="#000000">master</text>
</g>
<!-- system_mem_ctrls_port -->
<g id="node8" class="node">
<title>system_mem_ctrls_port</title>
<path fill="#4b4746" stroke="#000000" d="M111,-48.5C111,-48.5 141,-48.5 141,-48.5 147,-48.5 153,-54.5 153,-60.5 153,-60.5 153,-72.5 153,-72.5 153,-78.5 147,-84.5 141,-84.5 141,-84.5 111,-84.5 111,-84.5 105,-84.5 99,-78.5 99,-72.5 99,-72.5 99,-60.5 99,-60.5 99,-54.5 105,-48.5 111,-48.5"/>
<text text-anchor="middle" x="126" y="-62.8" font-family="Arial" font-size="14.00" fill="#000000">port</text>
</g>
<!-- system_membus_master&#45;&gt;system_mem_ctrls_port -->
<g id="edge2" class="edge">
<title>system_membus_master&#45;&gt;system_mem_ctrls_port</title>
<path fill="none" stroke="#000000" d="M133.2329,-239.1861C131.8322,-205.7443 128.8518,-134.586 127.1872,-94.8441"/>
<polygon fill="#000000" stroke="#000000" points="130.6803,-94.6032 126.7648,-84.7584 123.6864,-94.8962 130.6803,-94.6032"/>
</g>
<!-- system_l2_mem_side -->
<g id="node6" class="node">
<title>system_l2_mem_side</title>
<path fill="#94918b" stroke="#000000" d="M189,-48.5C189,-48.5 249,-48.5 249,-48.5 255,-48.5 261,-54.5 261,-60.5 261,-60.5 261,-72.5 261,-72.5 261,-78.5 255,-84.5 249,-84.5 249,-84.5 189,-84.5 189,-84.5 183,-84.5 177,-78.5 177,-72.5 177,-72.5 177,-60.5 177,-60.5 177,-54.5 183,-48.5 189,-48.5"/>
<text text-anchor="middle" x="219" y="-62.8" font-family="Arial" font-size="14.00" fill="#000000">mem_side</text>
</g>
<!-- system_membus_slave&#45;&gt;system_l2_mem_side -->
<g id="edge3" class="edge">
<title>system_membus_slave&#45;&gt;system_l2_mem_side</title>
<path fill="none" stroke="#000000" d="M211.3387,-229.09C213.213,-189.3133 216.5658,-118.1585 218.1397,-84.7584"/>
<polygon fill="#000000" stroke="#000000" points="207.8376,-229.0324 210.863,-239.1861 214.8299,-229.362 207.8376,-229.0324"/>
</g>
<!-- system_tol2bus_master -->
<g id="node4" class="node">
<title>system_tol2bus_master</title>
<path fill="#586070" stroke="#000000" d="M446.5,-239.5C446.5,-239.5 483.5,-239.5 483.5,-239.5 489.5,-239.5 495.5,-245.5 495.5,-251.5 495.5,-251.5 495.5,-263.5 495.5,-263.5 495.5,-269.5 489.5,-275.5 483.5,-275.5 483.5,-275.5 446.5,-275.5 446.5,-275.5 440.5,-275.5 434.5,-269.5 434.5,-263.5 434.5,-263.5 434.5,-251.5 434.5,-251.5 434.5,-245.5 440.5,-239.5 446.5,-239.5"/>
<text text-anchor="middle" x="465" y="-253.8" font-family="Arial" font-size="14.00" fill="#000000">master</text>
</g>
<!-- system_l2_cpu_side -->
<g id="node7" class="node">
<title>system_l2_cpu_side</title>
<path fill="#94918b" stroke="#000000" d="M291,-48.5C291,-48.5 343,-48.5 343,-48.5 349,-48.5 355,-54.5 355,-60.5 355,-60.5 355,-72.5 355,-72.5 355,-78.5 349,-84.5 343,-84.5 343,-84.5 291,-84.5 291,-84.5 285,-84.5 279,-78.5 279,-72.5 279,-72.5 279,-60.5 279,-60.5 279,-54.5 285,-48.5 291,-48.5"/>
<text text-anchor="middle" x="317" y="-62.8" font-family="Arial" font-size="14.00" fill="#000000">cpu_side</text>
</g>
<!-- system_tol2bus_master&#45;&gt;system_l2_cpu_side -->
<g id="edge4" class="edge">
<title>system_tol2bus_master&#45;&gt;system_l2_cpu_side</title>
<path fill="none" stroke="#000000" d="M434.1659,-253.9141C412.6484,-249.8577 384.7187,-241.2448 367,-223 332.9308,-187.9193 322.069,-129.6346 318.6106,-94.9597"/>
<polygon fill="#000000" stroke="#000000" points="322.0635,-94.2576 317.7278,-84.5906 315.0888,-94.8515 322.0635,-94.2576"/>
</g>
<!-- system_tol2bus_slave -->
<g id="node5" class="node">
<title>system_tol2bus_slave</title>
<path fill="#586070" stroke="#000000" d="M526,-239.5C526,-239.5 556,-239.5 556,-239.5 562,-239.5 568,-245.5 568,-251.5 568,-251.5 568,-263.5 568,-263.5 568,-269.5 562,-275.5 556,-275.5 556,-275.5 526,-275.5 526,-275.5 520,-275.5 514,-269.5 514,-263.5 514,-263.5 514,-251.5 514,-251.5 514,-245.5 520,-239.5 526,-239.5"/>
<text text-anchor="middle" x="541" y="-253.8" font-family="Arial" font-size="14.00" fill="#000000">slave</text>
</g>
<!-- system_cpu_icache_port -->
<g id="node9" class="node">
<title>system_cpu_icache_port</title>
<path fill="#959ead" stroke="#000000" d="M507,-48.5C507,-48.5 575,-48.5 575,-48.5 581,-48.5 587,-54.5 587,-60.5 587,-60.5 587,-72.5 587,-72.5 587,-78.5 581,-84.5 575,-84.5 575,-84.5 507,-84.5 507,-84.5 501,-84.5 495,-78.5 495,-72.5 495,-72.5 495,-60.5 495,-60.5 495,-54.5 501,-48.5 507,-48.5"/>
<text text-anchor="middle" x="541" y="-62.8" font-family="Arial" font-size="14.00" fill="#000000">icache_port</text>
</g>
<!-- system_tol2bus_slave&#45;&gt;system_cpu_icache_port -->
<g id="edge5" class="edge">
<title>system_tol2bus_slave&#45;&gt;system_cpu_icache_port</title>
<path fill="none" stroke="#000000" d="M541,-229.09C541,-189.3133 541,-118.1585 541,-84.7584"/>
<polygon fill="#000000" stroke="#000000" points="537.5001,-229.1861 541,-239.1861 544.5001,-229.1862 537.5001,-229.1861"/>
</g>
<!-- system_cpu_dcache_port -->
<g id="node10" class="node">
<title>system_cpu_dcache_port</title>
<path fill="#959ead" stroke="#000000" d="M391,-48.5C391,-48.5 465,-48.5 465,-48.5 471,-48.5 477,-54.5 477,-60.5 477,-60.5 477,-72.5 477,-72.5 477,-78.5 471,-84.5 465,-84.5 465,-84.5 391,-84.5 391,-84.5 385,-84.5 379,-78.5 379,-72.5 379,-72.5 379,-60.5 379,-60.5 379,-54.5 385,-48.5 391,-48.5"/>
<text text-anchor="middle" x="428" y="-62.8" font-family="Arial" font-size="14.00" fill="#000000">dcache_port</text>
</g>
<!-- system_tol2bus_slave&#45;&gt;system_cpu_dcache_port -->
<g id="edge6" class="edge">
<title>system_tol2bus_slave&#45;&gt;system_cpu_dcache_port</title>
<path fill="none" stroke="#000000" d="M509.4731,-233.667C507.9799,-232.7372 506.4846,-231.8432 505,-231 497.0329,-226.4749 492.336,-229.6186 486,-223 448.0288,-183.3358 434.4919,-116.6395 430.0212,-84.6652"/>
<polygon fill="#000000" stroke="#000000" points="507.6482,-236.6567 517.9131,-239.2801 511.5246,-230.828 507.6482,-236.6567"/>
</g>
<!-- system_cpu_dtb_walker_port -->
<g id="node11" class="node">
<title>system_cpu_dtb_walker_port</title>
<path fill="#7f7c77" stroke="#000000" d="M776,-48.5C776,-48.5 806,-48.5 806,-48.5 812,-48.5 818,-54.5 818,-60.5 818,-60.5 818,-72.5 818,-72.5 818,-78.5 812,-84.5 806,-84.5 806,-84.5 776,-84.5 776,-84.5 770,-84.5 764,-78.5 764,-72.5 764,-72.5 764,-60.5 764,-60.5 764,-54.5 770,-48.5 776,-48.5"/>
<text text-anchor="middle" x="791" y="-62.8" font-family="Arial" font-size="14.00" fill="#000000">port</text>
</g>
<!-- system_tol2bus_slave&#45;&gt;system_cpu_dtb_walker_port -->
<g id="edge8" class="edge">
<title>system_tol2bus_slave&#45;&gt;system_cpu_dtb_walker_port</title>
<path fill="none" stroke="#000000" d="M578.2995,-255.3213C628.1021,-251.6857 712.7567,-242.7361 736,-223 777.93,-187.3969 787.9087,-117.8036 790.2728,-84.7586"/>
<polygon fill="#000000" stroke="#000000" points="577.9701,-251.8356 568.2359,-256.0184 578.4538,-258.8189 577.9701,-251.8356"/>
</g>
<!-- system_cpu_itb_walker_port -->
<g id="node12" class="node">
<title>system_cpu_itb_walker_port</title>
<path fill="#7f7c77" stroke="#000000" d="M623,-48.5C623,-48.5 653,-48.5 653,-48.5 659,-48.5 665,-54.5 665,-60.5 665,-60.5 665,-72.5 665,-72.5 665,-78.5 659,-84.5 653,-84.5 653,-84.5 623,-84.5 623,-84.5 617,-84.5 611,-78.5 611,-72.5 611,-72.5 611,-60.5 611,-60.5 611,-54.5 617,-48.5 623,-48.5"/>
<text text-anchor="middle" x="638" y="-62.8" font-family="Arial" font-size="14.00" fill="#000000">port</text>
</g>
<!-- system_tol2bus_slave&#45;&gt;system_cpu_itb_walker_port -->
<g id="edge7" class="edge">
<title>system_tol2bus_slave&#45;&gt;system_cpu_itb_walker_port</title>
<path fill="none" stroke="#000000" d="M577.702,-245.4187C588.625,-240.1418 599.6314,-232.8486 607,-223 638.1951,-181.306 640.2909,-116.4486 639.2033,-84.9348"/>
<polygon fill="#000000" stroke="#000000" points="575.9879,-242.3477 568.2181,-249.5506 578.7838,-248.7651 575.9879,-242.3477"/>
</g>
</g>
</svg>
